PathFileType	4	(X/Y/Z)	Kaydara																																																																																																																									
DataRate	CameraRate	NumFrames	NumMarkers	Units	OrigDataRate	OrigDataStartFrame	OrigNumFrames																																																																																																																					
30	30	6	41	mm	30	77	152																																																																																																																					
Frame#	Time	EMLA_LFHD			EMLA_RFHD			EMLA_LBHD			EMLA_RBHD			EMLA_LFTShould			EMLA_RFTShould			EMLA_LRRShould			EMLA_RRRShould			EMLA_T10			EMLA_STRN			EMLA_TRUN			EMLA_LSHO			EMLA_LUPA			EMLA_LELB			EMLA_LFRM			EMLA_LWRA			EMLA_LWRB			EMLA_LFIN			EMLA_RSHO			EMLA_RUPA			EMLA_RELB			EMLA_RFRM			EMLA_RWRA			EMLA_RWRB			EMLA_RFIN			EMLA_LFWT			EMLA_RFWT			EMLA_LBWT			EMLA_RBWT			EMLA_LTHI			EMLA_LKNE			EMLA_LSHN			EMLA_LANK			EMLA_LHEE			EMLA_LTOE			EMLA_RTHI			EMLA_RKNE			EMLA_RSHN			EMLA_RANK			EMLA_RHEE			EMLA_RTOE		
		X1	Y1	Z1	X2	Y2	Z2	X3	Y3	Z3	X4	Y4	Z4	X5	Y5	Z5	X6	Y6	Z6	X7	Y7	Z7	X8	Y8	Z8	X9	Y9	Z9	X10	Y10	Z10	X11	Y11	Z11	X12	Y12	Z12	X13	Y13	Z13	X14	Y14	Z14	X15	Y15	Z15	X16	Y16	Z16	X17	Y17	Z17	X18	Y18	Z18	X19	Y19	Z19	X20	Y20	Z20	X21	Y21	Z21	X22	Y22	Z22	X23	Y23	Z23	X24	Y24	Z24	X25	Y25	Z25	X26	Y26	Z26	X27	Y27	Z27	X28	Y28	Z28	X29	Y29	Z29	X30	Y30	Z30	X31	Y31	Z31	X32	Y32	Z32	X33	Y33	Z33	X34	Y34	Z34	X35	Y35	Z35	X36	Y36	Z36	X37	Y37	Z37	X38	Y38	Z38	X39	Y39	Z39	X40	Y40	Z40	X41	Y41	Z41
																																																																																																																												
77	2.543	272.69859	1572.98462	-1516.72104	102.27225	1559.02802	-1529.61288	298.22849	1559.08218	-1664.25797	104.90106	1545.59662	-1681.05255	278.59404	1326.43631	-1587.94006	130.3523	1318.64914	-1597.30194	287.71936	1406.2709	-1722.48077	130.30192	1397.97546	-1733.25409	227.76249	1245.48904	-1811.38321	202.30255	1249.80713	-1570.34088	199.62652	1144.74922	-1576.01105	406.91261	1364.30099	-1622.81738	462.13264	1185.42488	-1615.06561	476.36486	1042.84149	-1582.24716	437.63035	913.94951	-1531.4917	299.07621	838.89618	-1433.3049	356.96907	783.12988	-1464.8291	331.84868	782.30469	-1399.17908	15.62638	1366.27655	-1663.46481	-54.86176	1192.92107	-1740.39108	-80.81461	1074.18076	-1814.16183	-92.93591	987.79991	-1862.24762	-70.77552	788.42033	-1834.41544	-103.33172	810.41924	-1910.84335	-129.14571	761.27357	-1877.30148	318.88096	924.05685	-1659.14734	84.50967	935.04059	-1662.28363	281.00082	971.95442	-1858.38196	104.21449	965.08705	-1846.69022	328.96561	722.37152	-1914.81949	340.11894	516.01147	-1946.67114	312.18597	339.65805	-2001.9281	310.52572	202.31836	-2136.02234	244.80131	152.64833	-2222.02896	271.41134	73.25331	-2044.19785	51.75312	653.71223	-1732.81067	39.17916	516.48041	-1554.68674	87.38911	308.84899	-1468.03146	51.57105	129.22349	-1483.17566	110.78869	64.25191	-1514.93423	75.06126	117.29877	-1324.59229
78	2.577	262.65371	1560.75241	-1476.30127	92.88381	1546.19186	-1491.54526	290.49866	1545.20523	-1623.47595	97.40329	1531.14243	-1642.7774	270.89212	1311.16364	-1547.19391	122.99907	1303.47809	-1558.42621	281.72119	1394.7052	-1679.32312	123.78964	1385.28259	-1692.65976	223.48255	1235.17464	-1772.27478	194.86135	1234.36852	-1531.75583	192.27583	1129.67018	-1539.07623	398.05782	1349.83414	-1576.92444	452.88094	1171.23146	-1569.80545	467.74883	1029.27589	-1539.5816	431.30787	898.79417	-1490.8432	294.03524	818.86192	-1395.84564	353.70159	764.46365	-1426.40579	328.3712	764.12941	-1360.70267	8.15318	1351.39572	-1624.76685	-59.43841	1175.82115	-1701.30859	-84.58626	1056.46156	-1772.82974	-97.24282	971.67343	-1821.12137	-78.45987	771.32141	-1795.97137	-110.967	795.2948	-1872.36389	-137.59151	746.1718	-1838.89267	312.00609	912.99553	-1624.78638	77.75229	923.55904	-1627.13562	274.2774	957.74055	-1823.95935	97.17868	952.94006	-1812.74521	324.0654	718.59276	-1884.64035	337.66441	513.08491	-1923.34381	311.10888	338.89458	-1986.01288	311.26297	207.74326	-2126.40396	246.78022	162.67332	-2215.06653	271.16287	73.0658	-2042.71027	46.1664	648.31551	-1688.81561	33.87116	512.64881	-1507.33368	84.15842	304.15661	-1423.40485	49.44837	124.69508	-1440.681	108.81815	60.95304	-1474.40369	72.51503	109.53469	-1283.12347
79	2.61	250.83784	1555.39536	-1432.55798	81.4022	1540.73151	-1450.67245	281.56515	1537.72964	-1579.05655	88.86053	1523.54935	-1601.77872	261.24706	1303.26447	-1499.68323	113.44934	1295.34592	-1514.34875	274.58191	1388.36884	-1631.78146	115.77627	1377.74902	-1647.6532	217.31815	1229.03946	-1726.9046	185.109	1226.33827	-1486.68442	183.0172	1121.68556	-1494.86099	388.39733	1340.76324	-1525.92773	443.40271	1161.91956	-1521.48865	458.94718	1019.50607	-1496.53656	426.58173	886.87515	-1453.63815	292.34802	798.09959	-1362.95593	354.23008	747.09549	-1395.44113	329.12006	743.7291	-1329.80133	-1.25914	1341.99265	-1581.8782	-65.36969	1163.02467	-1655.95734	-88.79186	1042.6532	-1725.0415	-101.12866	958.34305	-1772.56897	-84.45753	757.99126	-1745.91034	-115.42349	781.76476	-1823.50067	-143.81781	733.66875	-1789.96948	304.85163	906.6716	-1583.61618	70.2237	918.45871	-1584.14505	265.23279	950.91949	-1782.08832	88.19802	948.15155	-1770.48187	316.57297	717.528	-1846.73141	335.72914	512.4004	-1889.40933	311.1668	340.67345	-1960.90164	314.15268	218.02776	-2108.96164	251.15599	180.38105	-2200.10162	271.47314	72.4476	-2039.21295	40.34331	648.09326	-1641.80939	27.84233	510.47058	-1460.75104	83.93782	296.63305	-1389.72992	51.96775	118.49722	-1420.44083	110.3754	62.13043	-1462.8804	73.09418	84.90561	-1265.73471
80	2.643	237.78444	1556.90857	-1386.19659	68.57824	1543.78235	-1407.57065	271.48329	1535.59235	-1531.7099	79.11255	1522.87933	-1558.08487	249.7344	1303.0481	-1445.98587	102.29142	1293.91312	-1465.30914	265.40684	1388.16757	-1578.34381	106.90262	1376.81686	-1597.724	210.33304	1228.9753	-1675.55847	173.48818	1225.37758	-1435.59036	171.38746	1120.64346	-1443.83759	378.22559	1339.06799	-1470.84427	434.47491	1159.30458	-1473.01743	451.31443	1016.3575	-1454.72412	424.56043	881.18423	-1420.88242	295.36949	779.72504	-1337.27768	359.71329	734.05991	-1373.22189	334.97852	725.22621	-1307.9628	-11.63191	1339.20868	-1535.34653	-72.71357	1156.82732	-1605.26337	-93.95302	1034.29764	-1671.05042	-104.93048	948.90182	-1716.39008	-87.69497	749.6801	-1683.81516	-117.44628	770.77423	-1762.60635	-146.766	724.00352	-1727.96555	294.85489	904.87694	-1534.3869	61.10357	923.6615	-1536.66763	256.56454	951.63696	-1732.42355	79.67756	954.1555	-1722.73224	309.10282	717.1656	-1797.88727	332.92339	512.16167	-1841.04141	310.89632	343.76545	-1923.11493	317.49065	232.04056	-2079.43207	255.68232	203.85195	-2171.70822	271.28426	70.76766	-2032.60818	33.01247	651.06567	-1594.52576	23.62947	514.32163	-1414.30435	80.91352	293.77247	-1364.1893	51.55695	120.27151	-1417.41898	110.01	65.66822	-1460.84412	75.00215	72.33675	-1263.30887
81	2.677	224.93488	1564.13574	-1338.60886	55.77218	1553.58948	-1362.63214	260.87351	1537.33246	-1482.81158	68.71992	1527.39563	-1512.35962	235.96306	1308.35556	-1390.9584	89.73385	1299.00253	-1413.50113	255.10778	1393.96057	-1521.93161	97.18324	1381.29074	-1546.11359	203.67376	1234.58473	-1621.18332	160.14359	1230.58655	-1381.4061	158.50162	1125.81505	-1389.00116	365.30434	1344.45679	-1411.13525	424.9715	1165.17632	-1422.18765	444.89365	1021.53656	-1414.72168	425.30178	883.8353	-1393.96317	303.45217	767.28157	-1319.67194	369.80461	729.16855	-1360.49835	346.40114	712.69753	-1295.97809	-22.68014	1342.99347	-1486.34735	-80.86111	1157.47772	-1549.97253	-99.75429	1031.60706	-1611.52039	-108.80018	943.62984	-1653.069	-87.81073	746.74377	-1610.12451	-117.66071	762.97836	-1689.99298	-146.50739	717.75085	-1652.68555	284.26188	907.41203	-1480.41183	51.02063	931.95641	-1483.49228	248.98046	955.73792	-1677.64389	72.35851	963.05817	-1669.15192	300.46251	713.23685	-1739.00757	330.18951	507.63329	-1775.06805	311.63757	344.77757	-1870.24689	317.83651	246.21912	-2034.84131	252.76016	229.39312	-2123.51288	270.73269	67.91696	-2021.12442	22.77803	655.35561	-1549.54834	15.46738	511.25763	-1377.53906	77.42616	288.73707	-1340.8548	51.92158	117.84602	-1403.01376	110.16371	68.55939	-1455.5986	73.35046	65.89347	-1255.6134
82	2.71	213.98272	1572.96539	-1291.74286	44.97052	1565.36285	-1316.95953	250.47634	1542.30316	-1435.08316	58.36537	1535.8786	-1466.10367	223.30572	1319.11011	-1337.42157	78.29952	1308.12988	-1361.39618	244.19233	1401.8634	-1470.40314	87.15364	1387.35886	-1495.24277	195.02995	1240.85266	-1567.86667	148.54817	1240.25673	-1327.61093	147.46817	1135.41687	-1333.23151	353.0508	1355.00198	-1356.18759	414.72786	1178.25623	-1369.92279	438.97072	1033.23631	-1376.63925	428.00217	894.49135	-1371.38901	315.6159	762.03545	-1309.74945	383.54404	733.69949	-1355.61935	362.44598	708.19466	-1293.22479	-33.33224	1350.26382	-1435.88226	-89.55408	1162.19421	-1492.26959	-106.61364	1033.04909	-1549.19022	-113.2139	940.94276	-1585.07538	-85.74064	748.84102	-1526.96793	-116.17229	757.53349	-1607.61414	-143.7337	714.54758	-1566.56082	274.47973	913.24677	-1426.95526	41.20339	938.93173	-1432.47559	240.38652	962.34741	-1624.28406	64.25143	970.92644	-1617.75314	291.91732	701.98563	-1672.13028	328.49632	497.6527	-1693.16437	310.42908	344.35104	-1802.39441	313.06683	266.66296	-1977.5824	245.0843	264.00402	-2059.91577	270.46396	81.54599	-1998.85162	17.1843	658.59116	-1509.88968	7.57043	506.08421	-1347.0047	73.1352	283.27856	-1324.61594	51.37415	117.76643	-1400.30441	110.02409	70.69461	-1454.37866	76.75556	64.49814	-1253.56613
